<svg width="499" height="656" viewBox="0 0 499 656" fill="none" xmlns="http://www.w3.org/2000/svg">
<g clip-path="url(#clip0_21:802)">
<path d="M462.481 418.315L445.731 473.086C442.249 484.475 432.552 492.146 421.638 492.146H326.871C315.956 492.146 306.259 484.475 302.774 473.086L289 428.036C286.598 420.185 291.903 412.054 299.427 412.054H310.037C315.035 412.054 319.271 408.011 319.969 402.551L326.162 354.229C327.638 342.691 336.606 334.113 347.186 334.113H432.522C445.419 334.113 455.34 346.669 453.549 360.735L448.241 402.424C447.595 407.513 451.182 412.054 455.849 412.054H458.41C461.342 412.054 463.421 415.24 462.481 418.315Z" fill="#3F89E3"/>
<path d="M380.821 490.674H366.931V594.014H380.821V490.674Z" fill="white" stroke="#3F89E3" stroke-width="2" stroke-miterlimit="10"/>
<path d="M411.749 607.77V602.978C411.749 598.027 406.062 594.011 399.047 594.011H349.542C342.541 594.011 336.84 598.027 336.84 602.978V607.77" stroke="#000093" stroke-width="2" stroke-miterlimit="10"/>
<path d="M337.104 627.272C342.485 627.272 346.847 622.907 346.847 617.521C346.847 612.136 342.485 607.77 337.104 607.77C331.723 607.77 327.361 612.136 327.361 617.521C327.361 622.907 331.723 627.272 337.104 627.272Z" fill="white" stroke="#E3B03D" stroke-width="2" stroke-miterlimit="10"/>
<path d="M411.574 627.272C416.955 627.272 421.317 622.907 421.317 617.521C421.317 612.136 416.955 607.77 411.574 607.77C406.193 607.77 401.831 612.136 401.831 617.521C401.831 622.907 406.193 627.272 411.574 627.272Z" fill="white" stroke="#E3B03D" stroke-width="2" stroke-miterlimit="10"/>
<path d="M251.789 578.935C250.542 583.619 246.015 599.636 247.639 605.382C249.263 611.128 253.814 615.354 252.559 621.214C251.213 627.453 214.651 623.507 213.528 623.257C212.405 623.006 232.947 611.592 233.186 603.1C233.426 594.607 230.719 578.935 230.719 578.935H251.789Z" fill="#D28E46"/>
<path d="M207.679 627.731H252.877C253.952 627.731 254.824 626.858 254.824 625.782V625.779C254.824 624.703 253.952 623.831 252.877 623.831H207.679C206.604 623.831 205.732 624.703 205.732 625.779V625.782C205.732 626.858 206.604 627.731 207.679 627.731Z" fill="#94BCD3"/>
<path d="M240.048 624.081C240.048 624.081 235.297 618.287 228.605 616.583C221.27 614.716 217.713 615.71 213.757 617.713C209.925 619.65 207.781 623.833 207.781 623.833L240.048 624.081Z" fill="#CFE0F9"/>
<path d="M240.209 623.992C240.209 623.992 239.805 610.412 248.778 608.646C248.778 608.646 257.396 616.344 252.629 623.992H240.209Z" fill="#CFE0F9"/>
<path d="M251.789 578.935H230.722C230.722 578.935 231.242 581.948 231.799 586.045C239.463 586.767 247.34 584.223 250.698 582.951C251.143 581.274 251.52 579.875 251.789 578.935Z" fill="#C97C2D"/>
<path d="M301.379 486.701C289.74 486.683 277.808 486.586 262.062 486.348C263.993 499.916 266.002 516.774 265.695 530.6C265.404 543.629 262.733 545.386 262.841 550.873C263.024 559.694 257.15 562.619 259.049 568.931C262.243 579.496 251.778 578.943 251.778 578.943C251.778 578.943 238.079 581.469 227.693 578.943L217.082 469.789C214.031 459.645 227.418 447.42 240.637 441.49C263.395 431.289 349.747 392.288 361.06 427.939C364.06 437.423 354.403 486.793 301.379 486.701Z" fill="#C5D7F9"/>
<path d="M315.969 578.935C314.723 583.619 310.198 599.636 311.82 605.382C313.441 611.128 317.994 615.354 316.742 621.214C315.396 627.453 278.834 623.507 277.711 623.257C276.588 623.006 297.127 611.592 297.369 603.1C297.612 594.607 294.905 578.935 294.905 578.935H315.969Z" fill="#D28E46"/>
<path d="M271.873 627.731H317.071C318.146 627.731 319.018 626.859 319.018 625.782V625.78C319.018 624.704 318.146 623.831 317.071 623.831H271.873C270.797 623.831 269.926 624.704 269.926 625.78V625.782C269.926 626.859 270.797 627.731 271.873 627.731Z" fill="#94BCD3"/>
<path d="M304.242 624.082C304.242 624.082 299.489 618.287 292.797 616.584C285.464 614.716 281.904 615.71 277.948 617.713C274.116 619.651 271.972 623.834 271.972 623.834L304.242 624.082Z" fill="#CFE0F9"/>
<path d="M304.403 623.993C304.403 623.993 303.997 610.412 312.97 608.646C312.97 608.646 321.587 616.344 316.821 623.993H304.403Z" fill="#CFE0F9"/>
<path d="M315.97 578.935H294.914C294.914 578.935 295.436 581.948 295.991 586.045C303.658 586.767 311.534 584.223 314.892 582.951C315.342 581.274 315.719 579.875 315.97 578.935Z" fill="#C97C2D"/>
<path d="M357.597 486.701C345.958 486.683 334.026 486.586 318.28 486.348C320.211 499.916 322.22 516.774 321.913 530.6C321.622 543.628 322.931 545.386 323.046 550.873C323.23 559.694 321.342 562.618 323.24 568.931C326.434 579.496 315.969 578.943 315.969 578.943C315.969 578.943 302.271 581.468 291.884 578.943L273.303 469.789C270.254 459.645 275.664 447.42 288.884 441.49C311.645 431.289 395.152 383.496 408.908 437.116C411.367 446.743 410.623 486.793 357.597 486.701Z" fill="#CFE0F9"/>
<path d="M324.7 297.275C326.146 306.334 333.086 311.215 307.627 373.985C297.97 397.799 278.398 386.436 279.839 374.214C281.279 361.991 297.291 314.174 302.79 303.038C308.753 290.958 323.496 289.729 324.7 297.275Z" fill="#D1E2FB"/>
<path d="M298.56 384.183C280.129 393.382 208.309 388.056 208.102 383.437C207.862 378.046 271.509 365.945 285.06 364.463C301.226 362.695 309.547 378.701 298.56 384.183Z" fill="#E38E32"/>
<path d="M220.785 380.456C220.325 378.801 207.515 379.025 203.311 380.186C199.107 381.348 193.347 386.229 192.539 387.304C191.731 388.38 189.846 393.991 189.846 393.991C189.846 393.991 191.494 396.077 193.861 392.872C196.228 389.668 202.25 386.275 203.701 387.248C206.962 389.433 199.452 391.067 198.544 392.368C197.637 393.67 198.03 394.525 198.03 394.525C198.03 394.525 205.818 392.97 207.027 392.886C208.236 392.802 212.329 391.118 214.729 389.175C217.128 387.232 221.464 382.895 220.785 380.456Z" fill="#E38E32"/>
<path d="M408.03 445.978C419.61 459.602 394.999 398.152 390.375 382.642C388.189 375.305 393.179 346.872 398.502 323.715C403.888 300.232 395.414 291.796 380.845 288.16C364.596 284.102 343.586 285.169 338.622 285.829C322.931 287.91 319.134 289.761 311.909 293.645C308.319 295.575 308.507 332.994 307.457 342.842C306.407 352.69 311.61 358.657 317.747 362.719C319.5 363.881 323.179 370.031 323.092 384.55C323.006 399.069 320.9 406.871 315.073 415.037C315.073 415.037 375.055 407.211 408.03 445.978Z" fill="#E7F0FD"/>
<path d="M376.482 287.47L339.382 331.385L323.006 288.241" stroke="white" stroke-width="2" stroke-miterlimit="10"/>
<path d="M394.409 294.696C401.142 300.933 409.729 313.643 428.386 378.763C435.46 403.467 419.311 402.75 412.912 392.239C406.514 381.728 379.496 333.881 376.865 321.742C372.287 300.607 388.805 289.495 394.409 294.696Z" fill="#D1E2FB"/>
<path d="M425.165 398.95C406.045 408.577 327.91 398.274 327.681 393.476C327.412 387.868 394.336 382.779 408.41 381.184C425.192 379.284 436.559 393.223 425.165 398.95Z" fill="#E38E32"/>
<path d="M338.326 394.433C338.423 396.15 326.222 400.063 321.864 400.306C317.507 400.548 310.487 397.791 309.372 397.037C308.257 396.282 304.662 391.573 304.662 391.573C304.662 391.573 305.553 389.07 308.822 391.342C312.092 393.614 318.886 394.888 319.947 393.498C322.33 390.377 314.698 391.25 313.417 390.307C312.135 389.363 312.24 388.42 312.24 388.42C312.24 388.42 320.111 387.385 321.283 387.073C322.454 386.76 326.871 387.043 329.768 388.107C332.666 389.172 338.186 391.905 338.326 394.433Z" fill="#E38E32"/>
<path d="M360.53 254.32C366.912 253.061 375.459 241.278 372.529 231.177C369.599 221.075 355.273 209.179 340.618 213.904C325.963 218.628 316.971 225.676 318.714 240.141C320.098 251.641 356.062 289.193 380.845 287.767C390.809 287.195 400.859 266.227 387.847 258.406C374.834 250.585 360.53 254.32 360.53 254.32Z" fill="#5C2D1E"/>
<path d="M393.723 258.406C380.56 246.323 360.896 253.953 360.896 253.953" stroke="#5C2D1E" stroke-width="2" stroke-miterlimit="10"/>
<path d="M358.521 253.076C358.521 253.076 356.428 276.895 368.95 286.205L342.196 317.387L330.536 287.393C330.536 287.393 343.596 284.967 338.208 253.076H358.521Z" fill="#D49046"/>
<path d="M358.391 257.684C358.348 258.115 358.319 258.374 358.319 258.374C358.319 262.756 349.397 279.55 337.026 280.946C339.269 276.094 340.675 267.68 338.205 253.062H358.521C358.521 253.062 358.362 254.87 358.391 257.684Z" fill="#CB7C2D"/>
<path d="M358.359 255.048C358.335 255.29 358.319 255.428 358.319 255.428C358.698 258.694 345.662 271.747 335.369 272.946C330.748 273.485 323.873 260.133 322.742 255.611C321.094 249.018 321.003 242.515 320.919 240.149C320.785 236.314 321.027 226.708 332.068 226.708C343.179 226.708 349.427 251.193 357.618 246.245C357.769 245.906 359.172 243.027 362.735 245.305C365.363 246.992 361.391 253.215 358.359 255.048Z" fill="#D49046"/>
<path d="M331.64 246.323L330.536 254.991L332.701 257.592" stroke="#40465C" stroke-linecap="round" stroke-linejoin="round"/>
<path d="M323.127 255.546C326.862 255.546 329.889 252.516 329.889 248.779C329.889 245.041 326.862 242.011 323.127 242.011C319.393 242.011 316.365 245.041 316.365 248.779C316.365 252.516 319.393 255.546 323.127 255.546Z" stroke="#000093" stroke-width="2" stroke-miterlimit="10"/>
<path d="M341.162 255.546C344.897 255.546 347.924 252.516 347.924 248.779C347.924 245.041 344.897 242.011 341.162 242.011C337.428 242.011 334.4 245.041 334.4 248.779C334.4 252.516 337.428 255.546 341.162 255.546Z" stroke="#000093" stroke-width="2" stroke-miterlimit="10"/>
<path d="M329.889 248.779H334.4" stroke="#000093" stroke-width="2" stroke-miterlimit="10"/>
<path d="M347.927 248.409C347.927 248.409 358.801 241.698 363.468 245.299" stroke="#000093" stroke-width="2" stroke-miterlimit="10"/>
<path d="M325.839 250.355C326.733 250.355 327.458 249.63 327.458 248.736C327.458 247.841 326.733 247.116 325.839 247.116C324.945 247.116 324.221 247.841 324.221 248.736C324.221 249.63 324.945 250.355 325.839 250.355Z" fill="#40465C"/>
<path d="M338.701 250.355C339.595 250.355 340.319 249.63 340.319 248.736C340.319 247.841 339.595 247.116 338.701 247.116C337.807 247.116 337.082 247.841 337.082 248.736C337.082 249.63 337.807 250.355 338.701 250.355Z" fill="#40465C"/>
<path d="M332.889 262.47C332.889 262.47 336.511 263.125 339 259.681" stroke="#40465C" stroke-width="2" stroke-linecap="round" stroke-linejoin="round"/>
<path d="M295.094 360.016H176.802C174.868 360.015 172.982 359.415 171.403 358.298C169.824 357.18 168.63 355.601 167.985 353.776L143.816 285.457C143.469 284.477 143.362 283.428 143.504 282.398C143.647 281.368 144.034 280.388 144.633 279.539C145.233 278.69 146.027 277.997 146.95 277.519C147.872 277.041 148.896 276.792 149.934 276.792H269.196C270.847 276.792 272.457 277.304 273.805 278.257C275.153 279.211 276.173 280.56 276.723 282.118L301.229 351.348C301.576 352.329 301.683 353.38 301.54 354.411C301.397 355.442 301.008 356.424 300.407 357.274C299.806 358.123 299.009 358.816 298.085 359.293C297.16 359.77 296.134 360.018 295.094 360.016Z" fill="white"/>
<path d="M291.416 363.697H173.12C171.187 363.697 169.301 363.097 167.722 361.981C166.143 360.864 164.949 359.285 164.304 357.46L140.135 289.141C139.788 288.161 139.681 287.111 139.823 286.081C139.966 285.051 140.353 284.07 140.953 283.221C141.553 282.372 142.347 281.679 143.27 281.201C144.193 280.723 145.217 280.473 146.256 280.473H265.523C267.176 280.472 268.788 280.983 270.139 281.937C271.489 282.891 272.511 284.24 273.063 285.799L297.553 355.032C297.9 356.013 298.007 357.064 297.864 358.095C297.721 359.127 297.332 360.109 296.73 360.958C296.129 361.807 295.332 362.5 294.407 362.976C293.482 363.453 292.456 363.7 291.416 363.697Z" fill="#E7F0FD"/>
<path d="M295.094 359.647H176.802C174.868 359.647 172.982 359.047 171.403 357.93C169.824 356.813 168.63 355.234 167.985 353.41L143.816 285.09C143.469 284.11 143.362 283.061 143.504 282.031C143.647 281.001 144.034 280.021 144.633 279.172C145.233 278.322 146.027 277.629 146.949 277.151C147.872 276.673 148.895 276.423 149.934 276.423H269.196C270.847 276.423 272.457 276.935 273.805 277.889C275.153 278.843 276.172 280.191 276.723 281.748L301.228 350.979C301.576 351.96 301.682 353.011 301.539 354.042C301.396 355.073 301.008 356.055 300.407 356.904C299.805 357.754 299.009 358.447 298.084 358.924C297.16 359.401 296.134 359.649 295.094 359.647V359.647Z" stroke="#96BED5" stroke-width="2" stroke-miterlimit="10"/>
<path d="M233.388 378.526H198.224L209.262 331.752H244.429L233.388 378.526Z" fill="white" stroke="#96BED5" stroke-width="2" stroke-miterlimit="10"/>
<path d="M242.127 251.911C245.827 251.911 248.38 248.296 248.38 244.496V223.223C248.38 222.241 248.187 221.269 247.812 220.362C247.437 219.454 246.887 218.63 246.193 217.935C245.499 217.241 244.676 216.69 243.769 216.314C242.863 215.938 241.891 215.744 240.91 215.744H192.545C191.563 215.744 190.591 215.937 189.684 216.313C188.778 216.689 187.954 217.24 187.26 217.934C186.566 218.629 186.015 219.453 185.64 220.361C185.264 221.268 185.071 222.241 185.072 223.223V244.496C185.072 245.478 185.265 246.451 185.641 247.358C186.016 248.265 186.567 249.09 187.261 249.784C187.955 250.478 188.778 251.029 189.685 251.404C190.592 251.78 191.563 251.973 192.545 251.973H220.901C227.844 251.973 231.584 263.149 231.584 263.149C231.584 263.149 233.948 251.911 242.127 251.911Z" fill="white" stroke="#668E15" stroke-width="2" stroke-miterlimit="10"/>
<path d="M202.894 236.465C204.434 236.465 205.684 235.215 205.684 233.673C205.684 232.13 204.434 230.88 202.894 230.88C201.353 230.88 200.104 232.13 200.104 233.673C200.104 235.215 201.353 236.465 202.894 236.465Z" fill="white" stroke="#668E15" stroke-width="2" stroke-miterlimit="10"/>
<path d="M216.724 236.648C218.265 236.648 219.514 235.398 219.514 233.856C219.514 232.314 218.265 231.064 216.724 231.064C215.184 231.064 213.935 232.314 213.935 233.856C213.935 235.398 215.184 236.648 216.724 236.648Z" fill="white" stroke="#668E15" stroke-width="2" stroke-miterlimit="10"/>
<path d="M230.553 236.648C232.093 236.648 233.342 235.398 233.342 233.856C233.342 232.314 232.093 231.064 230.553 231.064C229.012 231.064 227.763 232.314 227.763 233.856C227.763 235.398 229.012 236.648 230.553 236.648Z" fill="white" stroke="#668E15" stroke-width="2" stroke-miterlimit="10"/>
<path d="M45.314 624.51V381.485H368.894V646.297" fill="white"/>
<path d="M45.314 624.51V381.485H368.894V646.297" stroke="#3F89E3" stroke-width="2" stroke-miterlimit="10"/>
<path d="M414.674 87.5356H325.454V104.785H414.674V87.5356Z" fill="white" stroke="#E0572B" stroke-width="2" stroke-miterlimit="10"/>
<path d="M429.533 79.709H339.422V86.463H429.533V79.709Z" fill="#3F89E3"/>
<path d="M421.123 69.7178H331.012V78.5741H421.123V69.7178Z" fill="white" stroke="#96BED5" stroke-width="2" stroke-miterlimit="10"/>
<path d="M405.099 58.4954H325.609V68.559H405.099V58.4954Z" fill="#E7F0FD"/>
<path d="M429.819 119.325H262.178L229.155 71.1973H75.0439V58.5166H235.661L268.684 106.641H429.819V119.325Z" fill="white" stroke="#96BED5" stroke-width="2" stroke-miterlimit="10"/>
<path d="M265.485 79.3584H311.117V82.9915C311.117 89.0472 308.713 94.855 304.435 99.1371C300.156 103.419 294.353 105.825 288.303 105.825C282.252 105.825 276.449 103.419 272.17 99.1371C267.892 94.855 265.488 89.0472 265.488 82.9915V79.3584H265.485Z" fill="#D1E2FB"/>
<path d="M272.721 79.3584C272.721 79.3584 262.83 87.425 257.188 80.8111C253.101 76.0191 269.288 76.0137 269.288 76.0137C269.288 76.0137 260.751 69.1735 263.458 67.9283C270.109 64.9016 274.014 75.0785 274.014 75.0785C274.014 75.0785 264.858 57.9562 272.791 55.0131C279.314 52.5875 279.313 70.2353 279.313 70.2353C279.313 70.2353 280.695 63.0851 284.384 63.546C288.074 64.0069 285.421 71.6314 285.421 71.6314C285.421 71.6314 288.653 69.4403 288.876 74.3994C288.876 74.3994 289.501 55.5333 297.405 57.331C303.973 58.8295 295.215 71.7473 295.215 71.7473C295.215 71.7473 300.286 65.4029 304.778 67.365C309.27 69.3271 300.738 75.2052 300.738 75.2052C300.738 75.2052 312.951 63.7885 317.375 66.8502C320.739 69.1842 312.192 74.8953 312.192 74.8953C312.192 74.8953 318.299 73.1946 319.681 76.1916C321.062 79.1886 311.109 79.353 311.109 79.353L272.721 79.3584Z" fill="#668E15"/>
<path d="M277.91 79.3584C277.91 79.3584 278.263 63.0904 284.373 63.5567C290.484 64.023 281.95 79.3584 281.95 79.3584H277.91Z" fill="#99CC33"/>
<path d="M277.91 79.3583C277.91 79.3583 271.776 63.9959 263.455 67.9389C255.33 71.7795 272.813 79.3583 272.813 79.3583H277.91Z" fill="#99CC33"/>
<path d="M290.532 79.3586C290.532 79.3586 296.039 65.5271 304.778 66.8423C313.516 68.1576 294.006 79.3586 294.006 79.3586H290.532Z" fill="#99CC33"/>
<path d="M299.519 79.3586C299.519 79.3586 316.611 70.7341 319.689 75.9384C322.767 81.1427 299.519 79.3586 299.519 79.3586Z" fill="#99CC33"/>
<path d="M119.905 -29.2563H96.4932V58.514H119.905V-29.2563Z" fill="white" stroke="#96BED5" stroke-width="2" stroke-miterlimit="10"/>
<path d="M113.577 0.899658H102.819V3.66757H113.577V0.899658Z" fill="#96BED5"/>
<path d="M113.577 8.30591H102.819V11.0738H113.577V8.30591Z" fill="#96BED5"/>
<path d="M113.577 15.7122H102.819V18.4801H113.577V15.7122Z" fill="#96BED5"/>
<path d="M113.577 23.1213H102.819V25.8892H113.577V23.1213Z" fill="#96BED5"/>
<path d="M108.199 48.6469C111.119 48.6469 113.486 46.2782 113.486 43.3563C113.486 40.4344 111.119 38.0657 108.199 38.0657C105.28 38.0657 102.913 40.4344 102.913 43.3563C102.913 46.2782 105.28 48.6469 108.199 48.6469Z" fill="#96BED5"/>
<path d="M145.373 -29.2563H121.96V58.514H145.373V-29.2563Z" fill="white" stroke="#E0572B" stroke-width="2" stroke-miterlimit="10"/>
<path d="M139.047 0.899658H128.289V3.66757H139.047V0.899658Z" fill="#E0572B"/>
<path d="M139.047 8.30591H128.289V11.0738H139.047V8.30591Z" fill="#E0572B"/>
<path d="M139.047 15.7122H128.289V18.4801H139.047V15.7122Z" fill="#E0572B"/>
<path d="M139.047 23.1213H128.289V25.8892H139.047V23.1213Z" fill="#E0572B"/>
<path d="M133.666 48.6469C136.586 48.6469 138.953 46.2782 138.953 43.3563C138.953 40.4344 136.586 38.0657 133.666 38.0657C130.747 38.0657 128.38 40.4344 128.38 43.3563C128.38 46.2782 130.747 48.6469 133.666 48.6469Z" fill="#E0572B"/>
<path d="M170.842 -29.2563H147.43V58.514H170.842V-29.2563Z" fill="#E7F0FD" stroke="#96BED5" stroke-width="2" stroke-miterlimit="10"/>
<path d="M164.514 0.528076H153.756V3.29601H164.514V0.528076Z" fill="white"/>
<path d="M164.514 7.93408H153.756V10.702H164.514V7.93408Z" fill="white"/>
<path d="M164.514 15.3401H153.756V18.108H164.514V15.3401Z" fill="white"/>
<path d="M164.514 22.7493H153.756V25.5172H164.514V22.7493Z" fill="white"/>
<path d="M159.136 48.275C162.056 48.275 164.422 45.9063 164.422 42.9844C164.422 40.0625 162.056 37.6938 159.136 37.6938C156.217 37.6938 153.85 40.0625 153.85 42.9844C153.85 45.9063 156.217 48.275 159.136 48.275Z" fill="white"/>
<path d="M196.309 -29.2563H172.897V58.514H196.309V-29.2563Z" fill="white" stroke="#3F89E3" stroke-width="2" stroke-miterlimit="10"/>
<path d="M189.984 0.899658H179.225V3.66757H189.984V0.899658Z" fill="#3F89E3"/>
<path d="M189.984 8.30591H179.225V11.0738H189.984V8.30591Z" fill="#3F89E3"/>
<path d="M189.984 15.7122H179.225V18.4801H189.984V15.7122Z" fill="#3F89E3"/>
<path d="M189.984 23.1213H179.225V25.8892H189.984V23.1213Z" fill="#3F89E3"/>
<path d="M184.603 48.6469C187.523 48.6469 189.889 46.2782 189.889 43.3563C189.889 40.4344 187.523 38.0657 184.603 38.0657C181.684 38.0657 179.317 40.4344 179.317 43.3563C179.317 46.2782 181.684 48.6469 184.603 48.6469Z" fill="#3F89E3"/>
</g>
<defs>
<clipPath id="clip0_21:802">
<rect width="499" height="656" fill="white"/>
</clipPath>
</defs>
</svg>
