<svg width="224" height="60" viewBox="0 0 224 60" fill="none" xmlns="http://www.w3.org/2000/svg">
<path fill-rule="evenodd" clip-rule="evenodd" d="M19.4946 22.5503C19.4946 12.7649 27.332 4.83221 37 4.83221C46.668 4.83221 54.5054 12.7649 54.5054 22.5503C54.5054 32.3358 46.668 40.2685 37 40.2685C31.4221 40.2685 26.4542 37.6306 23.2447 33.5106C22.4284 32.4627 20.9275 32.283 19.8922 33.1092C18.8569 33.9354 18.6794 35.4546 19.4957 36.5025C23.5716 41.7346 29.8981 45.1007 37 45.1007C49.3047 45.1007 59.2796 35.0045 59.2796 22.5503C59.2796 10.0961 49.3047 0 37 0C25.5018 0 16.0379 8.81613 14.8468 20.1342H2.3871H0V22.5503C0 43.2332 16.5655 60 37 60C57.4345 60 74 43.2332 74 22.5503V20.1342H71.6129H65.2473C63.929 20.1342 62.8602 21.216 62.8602 22.5503C62.8602 23.8847 63.929 24.9664 65.2473 24.9664H69.1387C67.9172 41.8523 53.9949 55.1678 37 55.1678C20.0051 55.1678 6.0828 41.8523 4.86127 24.9664H17.1075H19.4946V22.5503ZM18.6989 26.1745C17.3806 26.1745 16.3118 27.2562 16.3118 28.5906C16.3118 29.925 17.3806 31.0067 18.6989 31.0067H18.8979C20.2162 31.0067 21.2849 29.925 21.2849 28.5906C21.2849 27.2562 20.2162 26.1745 18.8979 26.1745H18.6989Z" fill="white"/>
<path d="M84.924 40.854C84.924 41.194 85.196 41.5 85.57 41.5H89.582C89.922 41.5 90.228 41.194 90.228 40.854V32.864H93.798C97.946 32.864 101.38 29.43 101.38 25.214C101.38 21.1 97.946 17.7 93.764 17.7H85.57C85.196 17.7 84.924 18.006 84.924 18.346V40.854ZM90.228 27.9V22.698H93.458C94.92 22.698 96.144 23.786 96.144 25.214C96.144 26.744 94.92 27.9 93.458 27.9H90.228ZM103.211 29.634C103.211 36.434 108.617 41.84 115.417 41.84C122.217 41.84 127.657 36.434 127.657 29.634C127.657 22.834 122.217 17.36 115.417 17.36C108.617 17.36 103.211 22.834 103.211 29.634ZM108.651 29.634C108.651 25.894 111.711 22.8 115.417 22.8C119.157 22.8 122.217 25.894 122.217 29.634C122.217 33.34 119.157 36.4 115.417 36.4C111.711 36.4 108.651 33.34 108.651 29.634ZM135.926 41.364C135.994 41.636 136.266 41.84 136.538 41.84H137.082C137.32 41.84 137.558 41.67 137.66 41.466L143.848 27.56H143.95L150.172 41.466C150.274 41.67 150.512 41.84 150.75 41.84H151.294C151.566 41.84 151.838 41.636 151.906 41.364L158.332 18.516C158.468 18.04 158.196 17.7 157.72 17.7H153.742C153.47 17.7 153.198 17.938 153.13 18.176L150.206 29.702H150.07L144.8 17.734C144.732 17.53 144.528 17.36 144.222 17.36H143.61C143.338 17.36 143.134 17.53 143.032 17.734L137.762 29.702H137.626L134.702 18.176C134.634 17.938 134.362 17.7 134.09 17.7H130.112C129.636 17.7 129.364 18.04 129.5 18.516L135.926 41.364ZM157.791 38.644C157.791 40.378 159.253 41.84 160.987 41.84C162.755 41.84 164.251 40.378 164.251 38.644C164.251 36.876 162.755 35.38 160.987 35.38C159.253 35.38 157.791 36.876 157.791 38.644ZM167.633 40.854C167.633 41.194 167.905 41.5 168.279 41.5H176.711C180.757 41.5 184.123 38.746 184.123 34.938C184.123 31.81 181.369 30.144 179.567 29.396C181.165 28.546 183.511 26.642 183.511 24.024C183.511 20.454 180.213 17.7 176.201 17.7H168.279C167.905 17.7 167.633 18.006 167.633 18.346V40.854ZM172.937 27.356V22.596H175.589C176.881 22.596 177.969 23.548 177.969 24.908C177.969 26.268 176.881 27.356 175.589 27.356H172.937ZM172.937 36.638V31.776H175.691C177.017 31.776 178.479 32.796 178.479 34.156C178.479 35.55 177.357 36.638 176.031 36.638H172.937ZM188.451 40.854C188.451 41.194 188.757 41.5 189.097 41.5H193.177C193.517 41.5 193.823 41.194 193.823 40.854V18.346C193.823 18.006 193.517 17.7 193.177 17.7H189.097C188.757 17.7 188.451 18.006 188.451 18.346V40.854ZM197.94 29.634C197.94 36.434 203.346 41.84 210.146 41.84C216.946 41.84 222.386 36.434 222.386 29.634C222.386 22.834 216.946 17.36 210.146 17.36C203.346 17.36 197.94 22.834 197.94 29.634ZM203.38 29.634C203.38 25.894 206.44 22.8 210.146 22.8C213.886 22.8 216.946 25.894 216.946 29.634C216.946 33.34 213.886 36.4 210.146 36.4C206.44 36.4 203.38 33.34 203.38 29.634Z" fill="white"/>
</svg>
